<svg width="314" height="3" viewBox="0 0 314 3" fill="none" xmlns="http://www.w3.org/2000/svg">
<path d="M311.618 1.30066C311.618 0.645067 312.055 0.208008 312.71 0.208008C313.366 0.208008 313.803 0.645067 313.803 1.30066C313.803 1.95625 313.366 2.39331 312.71 2.39331C312.055 2.39331 311.618 1.95625 311.618 1.30066ZM294.354 1.30066C294.354 0.645067 294.791 0.208008 295.446 0.208008C296.102 0.208008 296.539 0.645067 296.539 1.30066C296.539 1.95625 296.102 2.39331 295.446 2.39331C294.791 2.39331 294.354 1.95625 294.354 1.30066ZM276.871 1.30066C276.871 0.645067 277.309 0.208008 277.964 0.208008C278.62 0.208008 279.057 0.645067 279.057 1.30066C279.057 1.95625 278.62 2.39331 277.964 2.39331C277.527 2.39331 276.871 1.95625 276.871 1.30066ZM259.608 1.30066C259.608 0.645067 260.045 0.208008 260.7 0.208008C261.356 0.208008 261.793 0.645067 261.793 1.30066C261.793 1.95625 261.356 2.39331 260.7 2.39331C260.263 2.39331 259.608 1.95625 259.608 1.30066ZM242.344 1.30066C242.344 0.645067 242.781 0.208008 243.436 0.208008C244.092 0.208008 244.529 0.645067 244.529 1.30066C244.529 1.95625 244.092 2.39331 243.436 2.39331C242.781 2.39331 242.344 1.95625 242.344 1.30066ZM225.08 1.30066C225.08 0.645067 225.517 0.208008 226.172 0.208008C226.828 0.208008 227.265 0.645067 227.265 1.30066C227.265 1.95625 226.828 2.39331 226.172 2.39331C225.517 2.39331 225.08 1.95625 225.08 1.30066ZM207.816 1.30066C207.816 0.645067 208.253 0.208008 208.909 0.208008C209.564 0.208008 210.001 0.645067 210.001 1.30066C210.001 1.95625 209.564 2.39331 208.909 2.39331C208.253 2.39331 207.816 1.95625 207.816 1.30066ZM190.552 1.30066C190.552 0.645067 190.989 0.208008 191.645 0.208008C192.3 0.208008 192.737 0.645067 192.737 1.30066C192.737 1.95625 192.3 2.39331 191.645 2.39331C190.989 2.39331 190.552 1.95625 190.552 1.30066ZM173.07 1.30066C173.07 0.645067 173.507 0.208008 174.162 0.208008C174.818 0.208008 175.255 0.645067 175.255 1.30066C175.255 1.95625 174.818 2.39331 174.162 2.39331C173.725 2.39331 173.07 1.95625 173.07 1.30066ZM155.806 1.30066C155.806 0.645067 156.243 0.208008 156.899 0.208008C157.554 0.208008 157.991 0.645067 157.991 1.30066C157.991 1.95625 157.554 2.39331 156.899 2.39331C156.461 2.39331 155.806 1.95625 155.806 1.30066ZM138.542 1.30066C138.542 0.645067 138.979 0.208008 139.635 0.208008C140.29 0.208008 140.727 0.645067 140.727 1.30066C140.727 1.95625 140.29 2.39331 139.635 2.39331C138.979 2.39331 138.542 1.95625 138.542 1.30066ZM121.278 1.30066C121.278 0.645067 121.715 0.208008 122.371 0.208008C123.026 0.208008 123.463 0.645067 123.463 1.30066C123.463 1.95625 123.026 2.39331 122.371 2.39331C121.715 2.39331 121.278 1.95625 121.278 1.30066ZM104.014 1.30066C104.014 0.645067 104.451 0.208008 105.107 0.208008C105.763 0.208008 106.2 0.645067 106.2 1.30066C106.2 1.95625 105.763 2.39331 105.107 2.39331C104.451 2.39331 104.014 1.95625 104.014 1.30066ZM86.7505 1.30066C86.7505 0.645067 87.1875 0.208008 87.8431 0.208008C88.4987 0.208008 88.9358 0.645067 88.9358 1.30066C88.9358 1.95625 88.4987 2.39331 87.8431 2.39331C87.1875 2.39331 86.7505 1.95625 86.7505 1.30066ZM69.4866 1.30066C69.4866 0.645067 69.9237 0.208008 70.5793 0.208008C71.2349 0.208008 71.6719 0.645067 71.6719 1.30066C71.6719 1.95625 71.2349 2.39331 70.5793 2.39331C69.9237 2.39331 69.4866 1.95625 69.4866 1.30066ZM52.0042 1.30066C52.0042 0.645067 52.4413 0.208008 53.0969 0.208008C53.7525 0.208008 54.1895 0.645067 54.1895 1.30066C54.1895 1.95625 53.7525 2.39331 53.0969 2.39331C52.6598 2.39331 52.0042 1.95625 52.0042 1.30066ZM34.7404 1.30066C34.7404 0.645067 35.1774 0.208008 35.833 0.208008C36.4886 0.208008 36.9257 0.645067 36.9257 1.30066C36.9257 1.95625 36.4886 2.39331 35.833 2.39331C35.1774 2.39331 34.7404 1.95625 34.7404 1.30066ZM17.4765 1.30066C17.4765 0.645067 17.9136 0.208008 18.5692 0.208008C19.2248 0.208008 19.6618 0.645067 19.6618 1.30066C19.6618 1.95625 19.2248 2.39331 18.5692 2.39331C17.9136 2.39331 17.4765 1.95625 17.4765 1.30066ZM0.212677 1.30066C0.212677 0.645067 0.649737 0.208008 1.30533 0.208008C1.96092 0.208008 2.39798 0.645067 2.39798 1.30066C2.39798 1.95625 1.96092 2.39331 1.30533 2.39331C0.649737 2.39331 0.212677 1.95625 0.212677 1.30066Z" fill="white" fill-opacity="0.3"/>
</svg>
