<svg width="720" height="317" viewBox="0 0 720 317" fill="none" xmlns="http://www.w3.org/2000/svg">
<path d="M1.7598 316.482C1.10421 316.482 0.667134 315.826 0.885664 315.171C0.885664 314.515 1.54127 314.297 2.19686 314.297C2.85245 314.297 3.28949 314.952 3.07096 315.608C2.85243 316.045 2.41539 316.482 1.7598 316.482ZM6.1304 299.655C5.47481 299.437 5.25627 298.781 5.4748 298.344C5.69333 297.688 6.3489 297.47 6.78596 297.688C7.44155 297.907 7.66009 298.562 7.44156 299C7.22303 299.437 6.78597 299.655 6.34891 299.655C6.34891 299.874 6.34893 299.655 6.1304 299.655ZM13.3419 283.921C12.9048 283.702 12.6863 282.828 12.9048 282.391C13.1233 281.954 13.7789 281.736 14.4345 281.954C14.8716 282.173 15.0901 282.828 14.8716 283.484C14.6531 283.921 14.216 284.139 13.9975 284.139C13.7789 284.139 13.5604 284.139 13.3419 283.921ZM22.9572 269.498C22.5201 269.061 22.3016 268.405 22.7386 267.968C23.1757 267.531 23.8313 267.313 24.2684 267.75C24.7054 268.187 24.924 268.842 24.4869 269.279C24.2684 269.498 24.0498 269.717 23.6128 269.717C23.3943 269.717 23.1757 269.717 22.9572 269.498ZM34.5393 256.605C34.1022 256.168 34.1022 255.512 34.5393 255.075C34.9763 254.638 35.6319 254.638 36.0689 255.075C36.506 255.512 36.506 256.168 36.0689 256.605C35.8504 256.823 35.6319 256.823 35.4134 256.823C34.9763 257.042 34.7578 256.823 34.5393 256.605ZM214.826 246.115C214.826 245.46 215.263 245.023 215.919 245.023C216.575 245.023 217.012 245.46 217.012 246.115C217.012 246.771 216.575 247.208 215.919 247.208C215.482 247.208 215.045 246.771 214.826 246.115ZM198.655 246.552C198 246.552 197.562 245.897 197.781 245.46C197.781 244.804 198.437 244.367 199.092 244.586C199.748 244.586 200.185 245.241 199.966 245.897C199.748 246.334 199.311 246.771 198.655 246.552C198.655 246.552 198.655 246.771 198.655 246.552ZM47.8696 245.678C47.6511 245.241 47.651 244.586 48.0881 244.149C48.5252 243.711 49.1808 243.93 49.6178 244.367C49.8364 244.804 49.8363 245.46 49.3993 245.897C49.1808 246.115 48.9622 246.115 48.7437 246.115C48.5252 246.115 48.0881 246.115 47.8696 245.678ZM231.872 243.274C231.653 242.619 232.09 242.182 232.527 241.963C233.183 241.745 233.62 242.182 233.838 242.619C234.057 243.274 233.62 243.711 233.183 243.93C232.964 243.93 232.964 243.93 232.746 243.93C232.527 244.148 232.09 243.711 231.872 243.274ZM181.391 243.493C180.736 243.274 180.517 242.837 180.517 242.182C180.736 241.526 181.173 241.308 181.828 241.308C182.484 241.526 182.702 241.963 182.702 242.619C182.484 243.056 182.047 243.493 181.61 243.493C181.61 243.493 181.391 243.493 181.391 243.493ZM164.565 239.122C163.909 238.904 163.69 238.248 163.909 237.811C164.127 237.156 164.783 236.937 165.22 237.156C165.876 237.374 166.094 237.811 165.876 238.467C165.657 238.904 165.22 239.341 164.783 239.341C164.783 239.122 164.783 239.122 164.565 239.122ZM62.9482 236.937C62.7296 236.281 62.9481 235.844 63.3852 235.407C64.0408 235.189 64.4779 235.407 64.9149 235.844C65.1334 236.281 64.9149 236.937 64.4778 237.374C64.2593 237.374 64.2593 237.374 64.0408 237.374C63.3852 237.593 62.9482 237.374 62.9482 236.937ZM247.824 236.5C247.606 236.063 247.606 235.189 248.261 234.97C248.698 234.752 249.354 234.752 249.791 235.407C250.01 235.844 250.01 236.719 249.354 236.937C249.136 236.937 248.917 237.156 248.699 237.156C248.48 236.937 248.043 236.937 247.824 236.5ZM147.956 234.315C147.301 234.096 147.082 233.659 147.082 233.003C147.301 232.348 147.956 232.129 148.393 232.348C149.049 232.566 149.267 233.004 149.049 233.659C148.83 234.096 148.393 234.533 147.956 234.533C148.175 234.315 147.956 234.315 147.956 234.315ZM78.9008 230.381C78.6823 229.726 79.1194 229.288 79.5564 229.07C80.212 228.851 80.649 229.288 80.8676 229.726C81.0861 230.381 80.6491 230.818 80.212 231.037H79.9935C79.5564 231.255 79.1193 231.037 78.9008 230.381ZM131.129 230.163C130.474 229.944 130.255 229.507 130.255 228.851C130.474 228.196 130.911 227.977 131.567 227.977C132.222 228.196 132.441 228.633 132.441 229.289C132.441 229.726 132.004 230.163 131.129 230.163C131.348 230.163 131.348 230.163 131.129 230.163ZM95.9462 226.885C95.9462 226.229 96.3832 225.792 97.0388 225.792C97.6944 225.792 98.1315 226.229 98.1315 226.666C98.1315 227.322 97.6944 227.759 97.2573 227.977C97.2573 227.977 97.2574 227.977 97.0388 227.977C96.3832 227.977 95.9462 227.54 95.9462 226.885ZM114.084 227.54C113.429 227.54 112.991 226.885 112.991 226.448C112.991 225.792 113.647 225.355 114.084 225.355C114.74 225.355 115.177 226.011 115.177 226.448C115.395 227.103 114.74 227.54 114.084 227.54C114.303 227.54 114.303 227.54 114.084 227.54ZM262.029 226.448C261.592 226.011 261.81 225.355 262.247 224.918C262.684 224.481 263.34 224.481 263.777 225.136C264.214 225.573 264.214 226.229 263.777 226.666C263.559 226.885 263.34 226.885 263.122 226.885C262.466 226.885 262.247 226.885 262.029 226.448ZM274.485 214.428C274.048 213.991 274.048 213.336 274.485 212.899C274.922 212.462 275.578 212.462 276.015 212.899C276.452 213.336 276.452 213.991 276.015 214.428C275.796 214.647 275.578 214.866 275.141 214.866C274.922 214.647 274.704 214.647 274.485 214.428ZM285.412 201.098C284.974 200.661 284.756 200.005 285.193 199.568C285.63 199.131 286.286 198.913 286.723 199.35C287.16 199.787 287.378 200.443 286.941 200.88C286.723 201.098 286.286 201.317 286.067 201.317C285.849 201.317 285.63 201.317 285.412 201.098ZM295.682 186.894C295.245 186.457 295.027 185.801 295.464 185.364C295.901 184.927 296.557 184.708 296.994 185.145C297.431 185.583 297.649 186.238 297.212 186.675C296.994 186.894 296.557 187.112 296.338 187.112C295.901 187.112 295.682 187.112 295.682 186.894ZM305.298 172.689C304.861 172.252 304.642 171.597 305.079 171.16C305.298 170.722 306.172 170.504 306.609 170.941C307.046 171.16 307.265 172.034 306.827 172.471C306.609 172.908 306.172 172.908 305.953 172.908C305.516 172.689 305.298 172.689 305.298 172.689ZM314.913 158.266C314.476 157.829 314.257 157.174 314.695 156.737C315.132 156.3 315.787 156.081 316.224 156.518C316.661 156.955 316.88 157.611 316.443 158.048C316.224 158.266 315.787 158.485 315.569 158.485C315.35 158.485 315.132 158.266 314.913 158.266ZM506.782 156.518C506.782 155.862 507.219 155.425 507.875 155.425C508.531 155.425 508.968 155.862 508.968 156.518C508.968 157.174 508.531 157.611 507.875 157.611C507.438 157.611 506.782 157.174 506.782 156.518ZM490.611 155.425C489.955 155.207 489.737 154.77 489.955 154.114C490.174 153.459 490.611 153.24 491.267 153.24C491.922 153.459 492.141 154.114 492.141 154.551C491.922 154.988 491.485 155.425 491.048 155.425C490.611 155.425 490.611 155.425 490.611 155.425ZM524.046 154.114C523.828 153.459 524.265 153.022 524.702 152.803C525.357 152.585 525.794 153.022 526.013 153.459C526.231 154.114 525.794 154.551 525.357 154.77H525.139C524.483 154.77 524.046 154.551 524.046 154.114ZM474.221 148.651C473.784 148.432 473.566 147.777 473.784 147.121C474.003 146.684 474.658 146.466 475.314 146.684C475.751 146.903 475.97 147.558 475.751 148.214C475.533 148.651 475.095 148.869 474.877 148.869C474.658 148.869 474.44 148.869 474.221 148.651ZM539.999 147.558C539.78 147.121 539.999 146.466 540.436 146.029C540.873 145.81 541.747 146.029 541.966 146.466C542.184 146.903 541.966 147.558 541.529 147.995C541.31 147.995 541.091 148.214 541.091 148.214C540.654 147.995 540.217 147.777 539.999 147.558ZM325.621 144.499C325.184 144.062 325.184 143.406 325.621 142.969C326.058 142.532 326.714 142.532 327.151 142.969C327.588 143.406 327.588 144.062 327.369 144.499C327.151 144.717 326.932 144.936 326.495 144.936C326.058 144.717 325.84 144.717 325.621 144.499ZM459.58 139.473C459.143 139.036 458.924 138.38 459.361 137.943C459.798 137.506 460.454 137.287 460.891 137.724C461.328 138.162 461.547 138.817 461.11 139.254C460.891 139.473 460.454 139.691 460.235 139.691C460.017 139.691 459.798 139.473 459.58 139.473ZM554.422 137.943C553.985 137.506 554.203 136.85 554.64 136.413C555.077 135.976 555.733 136.195 556.17 136.632C556.607 137.069 556.389 137.724 555.952 138.162C555.733 138.38 555.514 138.38 555.296 138.38C555.077 138.38 554.64 138.38 554.422 137.943ZM337.422 131.824C336.985 131.387 336.985 130.732 337.422 130.294C337.859 129.857 338.514 129.857 338.951 130.294C339.388 130.732 339.388 131.387 338.951 131.824C338.733 132.043 338.514 132.043 338.296 132.043C337.859 132.261 337.64 132.043 337.422 131.824ZM445.594 128.983C445.157 128.546 444.938 127.891 445.375 127.454C445.812 127.017 446.468 126.798 446.905 127.235C447.342 127.672 447.561 128.328 447.124 128.765C446.905 128.983 446.468 129.202 446.25 129.202C446.031 129.202 445.812 129.202 445.594 128.983ZM567.315 126.579C566.878 126.142 566.878 125.487 567.315 125.05C567.752 124.613 568.408 124.613 568.845 125.05C569.282 125.487 569.282 126.142 568.845 126.579C568.626 126.798 568.408 127.017 567.971 127.017C567.971 126.798 567.534 126.798 567.315 126.579ZM350.533 120.679C350.096 120.242 350.315 119.586 350.752 119.149C351.189 118.712 351.845 118.931 352.282 119.368C352.5 119.805 352.5 120.461 352.063 120.898C351.845 121.116 351.626 121.116 351.408 121.116C351.189 121.116 350.752 120.898 350.533 120.679ZM431.389 119.149C430.952 118.712 430.734 118.057 431.171 117.62C431.389 117.183 432.264 116.964 432.701 117.401C433.138 117.62 433.356 118.494 432.919 118.931C432.701 119.368 432.264 119.368 432.045 119.368C431.827 119.368 431.608 119.368 431.389 119.149ZM578.897 113.468C578.46 113.031 578.242 112.375 578.679 111.938C579.116 111.501 579.771 111.282 580.208 111.719C580.645 112.156 580.864 112.812 580.427 113.249C580.208 113.468 579.771 113.686 579.553 113.686C579.334 113.686 578.897 113.686 578.897 113.468ZM365.393 111.719C365.175 111.064 365.393 110.627 366.049 110.19C366.705 109.971 367.142 110.19 367.579 110.627C367.797 111.282 367.579 111.719 367.142 112.157C366.923 112.157 366.923 112.157 366.705 112.157C366.049 112.375 365.612 112.156 365.393 111.719ZM416.311 111.064C415.655 110.845 415.437 110.19 415.655 109.534C415.874 108.879 416.529 108.66 417.185 108.879C417.841 109.097 418.059 109.753 417.841 110.19C417.622 110.627 417.185 110.845 416.748 110.845C416.748 111.064 416.529 111.064 416.311 111.064ZM381.783 106.256C381.565 105.601 382.002 105.164 382.657 104.945C383.313 104.945 383.75 105.164 383.968 105.819C383.968 106.475 383.75 106.912 383.094 107.13H382.876C382.439 107.13 382.002 106.693 381.783 106.256ZM399.921 106.693C399.266 106.693 398.829 106.038 399.047 105.601C399.047 104.945 399.703 104.508 400.14 104.727C400.795 104.727 401.232 105.382 401.014 106.038C401.232 106.256 400.795 106.693 399.921 106.693C400.14 106.693 400.14 106.693 399.921 106.693ZM588.731 99.2633C588.294 98.8262 588.075 98.1706 588.512 97.7335C588.731 97.2965 589.605 97.0779 590.042 97.2964C590.479 97.7335 590.698 98.3891 590.261 98.8262C590.042 99.0447 589.605 99.2633 589.387 99.2633C589.168 99.4818 588.95 99.4818 588.731 99.2633ZM597.909 84.6217C597.472 84.4032 597.254 83.5291 597.472 83.092C597.691 82.6549 598.565 82.4365 599.002 82.655C599.439 82.8735 599.657 83.7476 599.439 84.1847C599.22 84.6217 598.783 84.6217 598.565 84.6217C598.346 84.8403 598.128 84.6217 597.909 84.6217ZM607.087 69.7617C606.65 69.5432 606.432 68.8876 606.65 68.232C606.869 67.7949 607.743 67.5764 608.18 67.7949C608.617 68.232 608.836 68.8876 608.617 69.3246C608.399 69.5432 607.962 69.7617 607.743 69.7617C607.306 69.9802 607.306 69.9802 607.087 69.7617ZM616.266 55.1202C615.829 54.6832 615.61 54.0276 616.047 53.5905C616.484 53.1534 617.14 52.9349 617.577 53.372C618.014 53.809 618.232 54.4646 617.795 54.9017C617.577 55.1202 617.14 55.3388 616.921 55.3388C616.703 55.3388 616.484 55.3387 616.266 55.1202ZM626.537 41.1343C626.1 40.6973 626.1 40.0416 626.318 39.6046C626.755 39.1675 627.411 38.949 627.848 39.3861C628.285 39.8231 628.503 40.4787 628.066 40.9158C627.848 41.1343 627.411 41.3528 627.192 41.3528C626.974 41.3528 626.755 41.3528 626.537 41.1343ZM638.119 28.241C637.682 27.804 637.682 27.1484 638.119 26.7113C638.556 26.2743 639.211 26.2743 639.648 26.7113C640.085 27.1484 640.085 27.804 639.648 28.241C639.43 28.4596 639.211 28.4596 638.993 28.4596C638.556 28.4596 638.337 28.4596 638.119 28.241ZM651.23 17.096C650.793 16.659 651.012 16.0034 651.449 15.5663C651.886 15.1292 652.542 15.3478 652.979 15.7848C653.197 16.2219 653.197 16.8775 652.76 17.3145C652.542 17.5331 652.323 17.5331 652.105 17.5331C651.886 17.5331 651.449 17.5331 651.23 17.096ZM666.528 8.7919C666.309 8.13631 666.528 7.69925 667.183 7.26219C667.839 7.04366 668.276 7.26217 668.494 7.91776C668.713 8.57335 668.494 9.01042 667.839 9.22895C667.62 9.22895 667.62 9.22895 667.402 9.22895C667.183 9.44748 666.746 9.22896 666.528 8.7919ZM717.882 6.38805C717.226 6.16952 717.008 5.51395 717.227 5.0769C717.445 4.42131 718.101 4.20277 718.538 4.4213C719.193 4.63983 719.412 5.29541 719.193 5.951C718.975 6.38806 718.538 6.6066 718.101 6.6066C718.101 6.38807 717.882 6.38805 717.882 6.38805ZM682.917 3.32865C682.699 2.67306 683.136 2.23599 683.791 2.01746C684.447 1.79893 684.884 2.23601 685.103 2.8916C685.103 3.54719 684.884 3.98423 684.229 4.20276H684.01C683.573 4.20276 683.136 3.98424 682.917 3.32865ZM700.181 1.79895C700.181 1.14336 700.618 0.706299 701.274 0.706299C701.929 0.706299 702.367 1.36189 702.367 1.79895C702.367 2.45454 701.929 2.8916 701.274 2.8916C700.618 2.8916 700.181 2.45454 700.181 1.79895Z" fill="white" fill-opacity="0.3"/>
</svg>
