<svg width="663" height="239" viewBox="0 0 663 239" fill="none" xmlns="http://www.w3.org/2000/svg">
<path d="M7.16977 238.912C-9.65703 207.662 8.91796 167.671 36.8898 149.752C61.3651 134.017 93.9261 128.991 136.102 134.236C148.122 135.766 160.141 137.951 171.941 139.918C193.139 143.633 214.992 147.566 236.845 147.566C237.282 147.566 237.719 147.566 237.937 147.566C276.617 147.566 308.96 134.236 326.879 110.853C336.494 98.397 341.958 83.0999 347.421 68.0214C354.632 48.3537 362.062 27.8119 378.671 14.7001C408.172 -9.11967 451.222 1.80685 478.976 18.4151C492.962 26.7193 506.073 37.2087 518.748 47.0425C533.39 58.6246 548.25 70.4252 564.858 79.3849C594.36 95.1191 637.191 100.145 661.448 74.1402L662.978 75.6699C637.847 102.549 593.923 97.5229 563.765 81.3517C546.939 72.392 531.86 60.3728 517.218 48.7908C504.762 38.7384 491.65 28.4675 477.665 20.1633C450.567 3.99212 408.609 -6.7158 379.982 16.4484C364.029 29.3416 357.036 48.5723 349.606 68.8955C344.143 83.9741 338.461 99.4897 328.627 112.164C310.271 136.203 276.836 149.97 236.845 149.752C214.992 149.533 192.92 145.818 171.723 141.884C159.922 139.918 147.903 137.732 135.884 136.203C94.1446 130.958 62.2393 135.984 37.9824 151.281C10.8847 168.545 -7.25322 207.443 8.91799 237.601L7.16977 238.912Z" fill="white" fill-opacity="0.3"/>
</svg>
